<?xml version="1.0" encoding="utf-8"?>
<!-- Generator: Adobe Illustrator 26.0.3, SVG Export Plug-In . SVG Version: 6.00 Build 0)  -->
<svg version="1.1" id="logo-temp" xmlns="http://www.w3.org/2000/svg" xmlns:xlink="http://www.w3.org/1999/xlink" x="0px" y="0px"
	 viewBox="0 0 53.11 54.68" style="enable-background:new 0 0 53.11 54.68;" xml:space="preserve">
<style type="text/css">
	.st0{fill:#4B274B;}
	.st1{clip-path:url(#SVGID_00000065754192267205835850000004938342393973108364_);}
	.st2{clip-path:url(#SVGID_00000137131849809074758390000014679362525707536302_);}
</style>
<path class="st0" d="M19.42,38.45v2.39h5.84V30.63h-5.84v5.31c0.43,0.25,0.73,0.72,0.73,1.26S19.86,38.19,19.42,38.45z"/>
<g>
	<defs>
		<rect id="SVGID_1_" x="5.56" y="6.55" width="19.82" height="42.31"/>
	</defs>
	<clipPath id="SVGID_00000085961044154535978070000015493829184933372560_">
		<use xlink:href="#SVGID_1_"  style="overflow:visible;"/>
	</clipPath>
	<g style="clip-path:url(#SVGID_00000085961044154535978070000015493829184933372560_);">
		<path class="st0" d="M5.56,27.71c0,2.49,1.77,4.55,4.13,5.01c-0.75,0.78-1.21,1.84-1.21,3.01c0,2.41,1.96,4.38,4.38,4.38
			c0.05,0,0.1-0.01,0.16-0.01c-0.1,0.35-0.16,0.72-0.16,1.1c0,2.22,1.79,4.01,4.01,4.01c0.39,0,0.76-0.06,1.11-0.16
			c0,0.06-0.01,0.11-0.01,0.16c0,2.01,1.63,3.65,3.65,3.65c2.01,0,3.65-1.63,3.65-3.65V42.3h-7.29v-3.85
			c-0.43-0.25-0.73-0.72-0.73-1.26c0-0.54,0.3-1,0.73-1.26v-6.77h7.29v-3.65H15.05v4.58c0.43,0.25,0.73,0.72,0.73,1.26
			c0,0.8-0.65,1.46-1.46,1.46c-0.8,0-1.46-0.65-1.46-1.46c0-0.54,0.3-1,0.73-1.26v-6.04h11.67v-3.65H14.85
			c-0.25,0.43-0.72,0.73-1.26,0.73c-0.81,0-1.46-0.65-1.46-1.46c0-0.81,0.65-1.46,1.46-1.46c0.54,0,1,0.3,1.26,0.73h4.58v-3.12
			c-0.43-0.25-0.73-0.72-0.73-1.26c0-0.81,0.65-1.46,1.46-1.46c0.81,0,1.46,0.65,1.46,1.46c0,0.54-0.3,1-0.73,1.26v3.12h4.38V10.2
			c0-2.01-1.63-3.65-3.65-3.65c-2.01,0-3.65,1.63-3.65,3.65c0,0.05,0.01,0.1,0.01,0.16c-0.35-0.1-0.72-0.16-1.11-0.16
			c-2.22,0-4.01,1.79-4.01,4.01c0,0.38,0.06,0.75,0.16,1.1c-0.06,0-0.11-0.01-0.16-0.01c-2.41,0-4.38,1.96-4.38,4.38
			c0,1.17,0.46,2.23,1.21,3.01C7.34,23.16,5.56,25.22,5.56,27.71z M12.13,35.73h1.46v1.46h-1.46V35.73z M7.75,26.98h1.46v1.46H7.75
			V26.98z"/>
	</g>
</g>
<g>
	<defs>
		<rect id="SVGID_00000062873154053461155000000009377485391969083531_" x="27.99" y="6.55" width="19.88" height="42.31"/>
	</defs>
	<clipPath id="SVGID_00000123440258123068560280000011437340870700070535_">
		<use xlink:href="#SVGID_00000062873154053461155000000009377485391969083531_"  style="overflow:visible;"/>
	</clipPath>
	<g style="clip-path:url(#SVGID_00000123440258123068560280000011437340870700070535_);">
		<path class="st0" d="M43.74,22.7c0.75-0.78,1.21-1.85,1.21-3.01c0-2.41-1.96-4.38-4.38-4.38c-0.05,0-0.1,0.01-0.16,0.01
			c0.1-0.35,0.16-0.72,0.16-1.1c0-2.22-1.79-4.01-4.01-4.01c-0.39,0-0.76,0.06-1.11,0.16c0-0.06,0.01-0.11,0.01-0.16
			c0-2.01-1.63-3.65-3.65-3.65s-3.65,1.63-3.65,3.65v8.75h6.56v-3.12c-0.43-0.25-0.73-0.72-0.73-1.26c0-0.81,0.65-1.46,1.46-1.46
			c0.81,0,1.46,0.65,1.46,1.46c0,0.54-0.3,1-0.73,1.26v4.58h-8.02v3.65h10.41c0.25-0.43,0.72-0.73,1.26-0.73
			c0.8,0,1.46,0.65,1.46,1.46c0,0.81-0.65,1.46-1.46,1.46c-0.54,0-1-0.3-1.26-0.73H28.18v3.65h12.4v5.31
			c0.43,0.25,0.73,0.72,0.73,1.26c0,0.81-0.65,1.46-1.46,1.46c-0.81,0-1.46-0.65-1.46-1.46c0-0.54,0.3-1,0.73-1.26v-3.85h-5.84v8.96
			c0.43,0.25,0.73,0.72,0.73,1.26c0,0.8-0.65,1.46-1.46,1.46c-0.81,0-1.46-0.65-1.46-1.46c0-0.54,0.3-1,0.73-1.26v-8.96h-3.65v14.59
			c0,2.01,1.63,3.65,3.65,3.65s3.65-1.63,3.65-3.65c0-0.05-0.01-0.1-0.01-0.16c0.35,0.1,0.72,0.16,1.11,0.16
			c2.22,0,4.01-1.79,4.01-4.01c0-0.38-0.06-0.75-0.16-1.1c0.06,0,0.11,0.01,0.16,0.01c2.41,0,4.38-1.96,4.38-4.38
			c0-1.17-0.46-2.23-1.21-3.01c2.36-0.46,4.13-2.52,4.13-5.01S46.1,23.16,43.74,22.7z M39.12,20.41h-1.46v-1.46h1.46V20.41z
			 M44.95,28.44H43.5v-1.46h1.46V28.44z"/>
	</g>
</g>
</svg>
